<?xml version="1.0" encoding="UTF-8" standalone="no"?>
<svg
   xmlns:dc="http://purl.org/dc/elements/1.1/"
   xmlns:cc="http://creativecommons.org/ns#"
   xmlns:rdf="http://www.w3.org/1999/02/22-rdf-syntax-ns#"
   xmlns:svg="http://www.w3.org/2000/svg"
   xmlns="http://www.w3.org/2000/svg"
   xmlns:sodipodi="http://sodipodi.sourceforge.net/DTD/sodipodi-0.dtd"
   xmlns:inkscape="http://www.inkscape.org/namespaces/inkscape"
   version="1.1"
   width="1500"
   height="500"
   viewBox="0 0 1500 500"
   id="svg24"
   sodipodi:docname="logo.svg"
   inkscape:version="0.92.4 (5da689c313, 2019-01-14)"
   inkscape:export-filename="/home/mzima/Code/vagrant-minilab-for-ansible/setup/logo/logo.svg.png"
   inkscape:export-xdpi="25.975021"
   inkscape:export-ydpi="25.975021">
  <metadata
     id="metadata30">
    <rdf:RDF>
      <cc:Work
         rdf:about="">
        <dc:format>image/svg+xml</dc:format>
        <dc:type
           rdf:resource="http://purl.org/dc/dcmitype/StillImage" />
        <dc:title />
      </cc:Work>
    </rdf:RDF>
  </metadata>
  <defs
     id="defs28" />
  <sodipodi:namedview
     pagecolor="#ffffff"
     bordercolor="#666666"
     borderopacity="1"
     objecttolerance="10"
     gridtolerance="10"
     guidetolerance="10"
     inkscape:pageopacity="0"
     inkscape:pageshadow="2"
     inkscape:window-width="1920"
     inkscape:window-height="1027"
     id="namedview26"
     showgrid="true"
     inkscape:snap-text-baseline="false"
     inkscape:zoom="0.90820312"
     inkscape:cx="809.76313"
     inkscape:cy="168.17984"
     inkscape:window-x="0"
     inkscape:window-y="27"
     inkscape:window-maximized="1"
     inkscape:current-layer="g3804"
     inkscape:document-rotation="0"
     inkscape:snap-grids="true">
    <inkscape:grid
       type="xygrid"
       id="grid46" />
  </sodipodi:namedview>
  <g
     id="g3798"
     transform="translate(20,-9.9999999)">
    <g
       inkscape:export-ydpi="65.446014"
       inkscape:export-xdpi="65.446014"
       style="fill:#aa0000"
       transform="matrix(0.27515654,0,0,0.26449662,246.26555,253.50749)"
       id="document">
      <path
         style="fill:#aa0000;fill-opacity:1"
         id="path21"
         d="m 352.198,272.526 -0.267,-426.871 c 0,-6.639 -6.361,-11.618 -13.177,-11.618 -7.271,0 -12.724,4.979 -12.724,11.618 l 0.277,442.981 -83.138,51.73 -0.293,-425.8367 c 0,-6.2236 -5.908,-11.6174 -12.724,-11.6174 -7.27,0 -12.723,5.3938 -12.723,11.6174 l 0.305,441.6627 -84.496,52.575 -0.327,-424.1185 c 0,-6.2236 -5.452,-11.6174 -12.723,-11.6174 -7.27,0 -12.723,5.3938 -12.723,11.6174 L 107.804,424.593 24.2252,476.598 23.8558,53.5229 c 0,-6.6385 -5.4528,-11.6173 -12.7232,-11.6173 -6.81592,0 -12.7231,4.9788 -12.7231,11.6173 0,0 0.25165,288.1941 0.3804,435.6411 -5.58269,0.452 -11.1654,-1.183 -16.7481,-4.905 L -389.683,251.931 c -6.638,-4.979 -11.617,-11.617 -11.617,-21.574 v -83.15 -378.587 c 0,-9.957 6.638,-18.254 13.276,-21.573 l 373.3848,-232.328 c 9.95693,-6.638 19.91386,-6.638 29.8708,0 l 371.7254,232.328 c 6.638,4.978 11.616,11.616 11.616,21.573 v 378.587 83.15 c 0,9.957 -6.638,18.255 -13.276,21.574 z M -666.818,-148.229 V 81.0034 346.521 386.349 c 0,9.957 6.638,18.254 13.276,21.573 l 637.2433,398.277 c 11.61643,4.979 23.23284,4.979 29.8708,0 L 650.815,407.922 c 8.298,-6.638 13.276,-13.275 13.276,-21.573 V 346.521 81.0034 -148.229 -347.544 -387.372 c 0,-9.956 -6.638,-18.254 -13.276,-21.573 L 13.5721,-807.222 c -11.61642,-4.978 -23.23283,-4.978 -29.8708,0 l -637.2433,398.277 c -8.297,6.638 -13.276,13.276 -13.276,21.573 v 39.828 z"
         inkscape:connector-curvature="0" />
    </g>
    <g
       transform="translate(-239.0564,-66.972046)"
       id="g17">
      <g
         id="g3804"
         transform="translate(0,4.265051)">
        <text
           xml:space="preserve"
           style="font-style:normal;font-weight:normal;font-size:95.99960327px;line-height:1.25;font-family:sans-serif;fill:#000000;fill-opacity:1;stroke:none;stroke-width:0.5"
           x="1175.1852"
           y="293.66882"
           id="text34"
           inkscape:export-xdpi="65.446014"
           inkscape:export-ydpi="65.446014"><tspan
             sodipodi:role="line"
             x="1175.1852"
             y="293.66882"
             style="font-style:normal;font-variant:normal;font-weight:bold;font-stretch:normal;font-size:95.99960327px;font-family:'Droid Sans';-inkscape-font-specification:'Droid Sans, Bold';font-variant-ligatures:normal;font-variant-caps:normal;font-variant-numeric:normal;text-align:center;text-anchor:middle;fill:#4d4d4d;stroke-width:0.5"
             id="tspan44">Vagrant MiniLab</tspan></text>
        <text
           xml:space="preserve"
           style="font-style:normal;font-weight:normal;font-size:20px;line-height:1.25;font-family:sans-serif;fill:#000000;fill-opacity:1;stroke:none;stroke-width:0.5"
           x="729.97681"
           y="403.66882"
           id="text60"
           inkscape:export-xdpi="65.446014"
           inkscape:export-ydpi="65.446014"><tspan
             sodipodi:role="line"
             id="tspan58"
             x="729.97681"
             y="403.66882"
             style="font-style:normal;font-variant:normal;font-weight:normal;font-stretch:normal;font-size:81.33350372px;font-family:'Droid Sans';-inkscape-font-specification:'Droid Sans, Normal';font-variant-ligatures:normal;font-variant-caps:normal;font-variant-numeric:normal;fill:#4d4d4d;stroke-width:0.5">for Ansible</tspan></text>
        <flowRoot
           xml:space="preserve"
           id="flowRoot3806"
           style="fill:black;fill-opacity:1;stroke:none;font-family:sans-serif;font-style:normal;font-weight:normal;font-size:40px;line-height:1.25;letter-spacing:0px;word-spacing:0px"><flowRegion
             id="flowRegion3808"><rect
               id="rect3810"
               width="990"
               height="380"
               x="440"
               y="60" /></flowRegion><flowPara
             id="flowPara3812"></flowPara></flowRoot>      </g>
    </g>
  </g>
</svg>
